<?xml version="1.0" encoding="UTF-8"?><svg id="Livello_1" xmlns="http://www.w3.org/2000/svg" viewBox="0 0 492.73 197.84"><defs><style>.cls-1{fill:#e64b38;}</style></defs><path class="cls-1" d="M79.34,160.36c-10.94,0-20.27-3.86-28-11.58-7.72-7.72-11.58-17.05-11.58-28v-39.58c0-10.72,3.86-19.95,11.58-27.67,7.72-7.72,17.05-11.58,28-11.58v118.41Zm39.58-39.58V41.95c10.72,0,19.95,3.86,27.67,11.58,7.72,7.72,11.58,16.95,11.58,27.67s-3.86,20.27-11.58,28c-7.72,7.72-16.95,11.58-27.67,11.58Z"/><path class="cls-1" d="M227.67,160.36c-10.94,0-20.27-3.86-28-11.58-7.72-7.72-11.58-17.05-11.58-28v-39.25c0-10.94,3.86-20.27,11.58-28,7.72-7.72,17.05-11.58,28-11.58v118.41Z"/><path class="cls-1" d="M448.14,160.36c-20.85-14.16-52.13-35.18-93.84-63.07-9.15-6.22-14.79-14.69-16.92-25.42-.64-2.78-.96-5.58-.96-8.36,0-7.72,2.23-14.91,6.7-21.56,20.85,13.95,52.13,34.97,93.84,63.07,9.15,6.01,14.78,14.37,16.91,25.1,.64,3.01,.96,5.9,.96,8.69,0,7.51-2.23,14.7-6.7,21.56Z"/><circle class="cls-1" cx="286.87" cy="61.58" r="19.63"/><circle class="cls-1" cx="435.21" cy="61.58" r="19.63"/><circle class="cls-1" cx="286.87" cy="140.74" r="19.63"/><circle class="cls-1" cx="356.05" cy="140.74" r="19.63"/></svg>